<svg width="8" height="9" viewBox="0 0 8 9" fill="none" xmlns="http://www.w3.org/2000/svg">
<path d="M2.95 5.64171C2.82222 5.64171 2.71528 5.59865 2.62917 5.51254C2.54306 5.42643 2.5 5.31949 2.5 5.19171C2.5 5.06393 2.54306 4.95699 2.62917 4.87087C2.71528 4.78476 2.82222 4.74171 2.95 4.74171C3.07778 4.74171 3.18472 4.78476 3.27083 4.87087C3.35694 4.95699 3.4 5.06393 3.4 5.19171C3.4 5.31949 3.35694 5.42643 3.27083 5.51254C3.18472 5.59865 3.07778 5.64171 2.95 5.64171ZM5.05833 5.64171C4.93056 5.64171 4.82361 5.59865 4.7375 5.51254C4.65139 5.42643 4.60833 5.31949 4.60833 5.19171C4.60833 5.06393 4.65139 4.95699 4.7375 4.87087C4.82361 4.78476 4.93056 4.74171 5.05833 4.74171C5.18611 4.74171 5.29306 4.78476 5.37917 4.87087C5.46528 4.95699 5.50833 5.06393 5.50833 5.19171C5.50833 5.31949 5.46528 5.42643 5.37917 5.51254C5.29306 5.59865 5.18611 5.64171 5.05833 5.64171ZM4 7.66671C4.78889 7.66671 5.45833 7.39171 6.00833 6.84171C6.55833 6.29171 6.83333 5.62226 6.83333 4.83337C6.83333 4.68893 6.82222 4.54726 6.8 4.40837C6.77778 4.26949 6.75 4.14171 6.71667 4.02504C6.60556 4.05282 6.48472 4.07226 6.35417 4.08337C6.22361 4.09449 6.08889 4.10004 5.95 4.10004C5.41111 4.10004 4.90139 3.98893 4.42083 3.76671C3.94028 3.54449 3.53056 3.22782 3.19167 2.81671C3.00278 3.26671 2.73194 3.65976 2.37917 3.99587C2.02639 4.33199 1.62222 4.59171 1.16667 4.77504V4.83337C1.16667 5.62226 1.44167 6.29171 1.99167 6.84171C2.54167 7.39171 3.21111 7.66671 4 7.66671ZM3.23333 2.10837C3.72222 2.6806 4.17361 3.07226 4.5875 3.28337C5.00139 3.49449 5.45556 3.60004 5.95 3.60004C6.08333 3.60004 6.18889 3.59726 6.26667 3.59171C6.34444 3.58615 6.43056 3.56949 6.525 3.54171C6.275 3.09171 5.93472 2.72226 5.50417 2.43337C5.07361 2.14449 4.57222 2.00004 4 2.00004C3.85 2.00004 3.70833 2.01115 3.575 2.03337C3.44167 2.0556 3.32778 2.0806 3.23333 2.10837ZM1.24167 4.18337C1.50833 4.08337 1.8125 3.85699 2.15417 3.50421C2.49583 3.15143 2.73889 2.72504 2.88333 2.22504C2.4 2.44171 2.03472 2.7181 1.7875 3.05421C1.54028 3.39032 1.35833 3.76671 1.24167 4.18337ZM0.975 3.42504C1.14167 3.06949 1.36389 2.75282 1.64167 2.47504C1.91944 2.19726 2.23611 1.97504 2.59167 1.80837C2.48611 1.66393 2.35278 1.54865 2.19167 1.46254C2.03056 1.37643 1.85278 1.33337 1.65833 1.33337C1.33611 1.33337 1.0625 1.44587 0.8375 1.67087C0.6125 1.89587 0.5 2.16949 0.5 2.49171C0.5 2.68615 0.543056 2.86393 0.629167 3.02504C0.715278 3.18615 0.830556 3.31949 0.975 3.42504ZM4 8.16671C3.53889 8.16671 3.10556 8.07921 2.7 7.90421C2.29444 7.72921 1.94167 7.49171 1.64167 7.19171C1.34167 6.89171 1.10417 6.53893 0.929167 6.13337C0.754167 5.72782 0.666667 5.29449 0.666667 4.83337C0.666667 4.67226 0.677778 4.51254 0.7 4.35421C0.722222 4.19587 0.755556 4.04449 0.8 3.90004C0.561111 3.7556 0.368056 3.55976 0.220833 3.31254C0.0736111 3.06532 0 2.79171 0 2.49171C0 2.0306 0.161111 1.63893 0.483333 1.31671C0.805556 0.994485 1.19722 0.833374 1.65833 0.833374C1.95278 0.833374 2.22361 0.904207 2.47083 1.04587C2.71806 1.18754 2.91667 1.38337 3.06667 1.63337C3.21111 1.58893 3.3625 1.5556 3.52083 1.53337C3.67917 1.51115 3.83889 1.50004 4 1.50004C4.46111 1.50004 4.89444 1.58754 5.3 1.76254C5.70556 1.93754 6.05833 2.17504 6.35833 2.47504C6.65833 2.77504 6.89583 3.12782 7.07083 3.53337C7.24583 3.93893 7.33333 4.37226 7.33333 4.83337C7.33333 5.29449 7.24583 5.72782 7.07083 6.13337C6.89583 6.53893 6.65833 6.89171 6.35833 7.19171C6.05833 7.49171 5.70556 7.72921 5.3 7.90421C4.89444 8.07921 4.46111 8.16671 4 8.16671Z" fill="#828282"/>
</svg>
