<?xml version="1.0" encoding="iso-8859-1"?>

<!-- Uploaded to: SVG Repo, www.svgrepo.com, Generator: SVG Repo Mixer Tools -->
<svg height="800px" width="800px" version="1.1" xmlns="http://www.w3.org/2000/svg" xmlns:xlink="http://www.w3.org/1999/xlink" 
	 viewBox="0 0 32 32" xml:space="preserve">
<g id="Layer_7">
	<path style="fill:#66CCFF;" d="M13.171,22.828c1.02,0.001,2.05-0.392,2.828-1.171l2.828-2.829C19.607,18.05,20,17.02,19.999,16
		c0.001-1.02-0.392-2.05-1.172-2.828c-0.778-0.779-1.808-1.173-2.828-1.172c-1.02-0.001-2.05,0.392-2.828,1.172L10.342,16
		c-0.779,0.778-1.173,1.808-1.172,2.828c-0.001,1.02,0.392,2.05,1.172,2.829C11.121,22.436,12.15,22.829,13.171,22.828z
		 M11.757,17.414l2.828-2.828c0.393-0.392,0.899-0.585,1.414-0.586c0.515,0.001,1.021,0.193,1.414,0.586
		c0.392,0.393,0.585,0.899,0.586,1.414c-0.001,0.515-0.193,1.021-0.586,1.414l-2.828,2.828c-0.393,0.392-0.899,0.585-1.414,0.586
		c-0.515-0.001-1.021-0.193-1.414-0.586c-0.392-0.393-0.585-0.899-0.586-1.414C11.172,18.313,11.364,17.807,11.757,17.414
		l-0.707-0.707L11.757,17.414z"/>
	<path style="fill:#4E5F80;" d="M3.793,9.207C4.538,9.953,5.524,10.33,6.5,10.328c0.655,0.001,1.307-0.183,1.895-0.52l1.261,1.261
		c-3.178,3.378-5.522,7.253-7.098,10.678c-0.845,1.837-1.471,3.543-1.891,4.982c-0.418,1.447-0.638,2.596-0.642,3.458
		c0.018,0.41,0.003,0.757,0.313,1.241l0.233,0.233c0.484,0.31,0.831,0.295,1.24,0.313c0.862-0.005,2.011-0.224,3.458-0.642
		c4.116-1.206,10.472-4.105,15.665-8.985l1.257,1.257c-0.336,0.587-0.52,1.24-0.52,1.895c-0.001,0.976,0.376,1.962,1.121,2.707
		l3.5,3.5C26.479,31.893,26.737,32,27,32c0.263,0,0.521-0.107,0.707-0.293l4-4C31.893,27.521,32,27.263,32,27
		c0-0.263-0.107-0.521-0.293-0.707l-3.5-3.5c-0.745-0.746-1.731-1.122-2.707-1.121c-0.655-0.001-1.307,0.183-1.895,0.519
		l-1.262-1.262c3.187-3.388,5.533-7.274,7.111-10.704c0.845-1.839,1.471-3.545,1.89-4.982c0.418-1.445,0.637-2.586,0.642-3.44
		c-0.021-0.407,0.004-0.752-0.331-1.249l-0.19-0.19c-0.501-0.34-0.855-0.317-1.272-0.338c-0.861,0.005-2.009,0.224-3.456,0.641
		c-4.115,1.204-10.474,4.1-15.671,8.984L9.809,8.395c0.336-0.588,0.52-1.24,0.519-1.895c0.001-0.977-0.376-1.962-1.121-2.707
		l-3.5-3.5c-0.391-0.391-1.024-0.391-1.414,0l-4,4c-0.39,0.391-0.39,1.024,0,1.414L3.793,9.207z M24.207,24.207
		C24.207,24.207,24.207,24.207,24.207,24.207L24.207,24.207c0.36-0.359,0.822-0.534,1.293-0.536
		c0.471,0.001,0.933,0.177,1.293,0.536L29.586,27L27,29.586l-2.793-2.793c-0.359-0.36-0.535-0.822-0.536-1.293
		C23.673,25.029,23.848,24.567,24.207,24.207z M11.757,11.757c3.319-3.321,7.33-5.775,10.832-7.383
		c1.75-0.804,3.373-1.398,4.707-1.786c1.175-0.346,2.124-0.543,2.68-0.583c-0.024,0.534-0.194,1.488-0.551,2.699
		c-1.161,3.997-4.177,10.54-9.154,15.519c-0.008,0.008-0.02,0.01-0.028,0.019c-0.008,0.008-0.011,0.02-0.019,0.029
		C16.91,23.58,12.91,26.024,9.415,27.63c-1.75,0.805-3.372,1.397-4.706,1.785c-1.168,0.344-2.113,0.513-2.671,0.547
		c0.034-0.558,0.204-1.503,0.548-2.672C3.75,23.278,6.777,16.726,11.757,11.757z M5,2.414l2.793,2.793
		C8.152,5.567,8.327,6.029,8.328,6.5C8.327,6.971,8.152,7.433,7.793,7.793h0v0C7.433,8.152,6.971,8.327,6.5,8.328
		C6.029,8.327,5.567,8.152,5.207,7.793L2.414,5L5,2.414z"/>
</g>
<g id="Layer_1">
</g>
</svg>