<?xml version="1.0" encoding="iso-8859-1"?>
<!-- Uploaded to: SVG Repo, www.svgrepo.com, Generator: SVG Repo Mixer Tools -->
<svg height="800px" width="800px" version="1.1" id="Layer_1" xmlns="http://www.w3.org/2000/svg" xmlns:xlink="http://www.w3.org/1999/xlink" 
	 viewBox="0 0 511.999 511.999" xml:space="preserve">
<path style="fill:#00B7C0;" d="M255.999,321.341c-76.916,0-139.49-62.576-139.49-139.49s62.576-139.49,139.49-139.49
	s139.49,62.576,139.49,139.49S332.915,321.341,255.999,321.341z M255.999,75.996c-58.368,0-105.854,47.486-105.854,105.854
	s47.486,105.854,105.854,105.854s105.854-47.486,105.854-105.854S314.368,75.996,255.999,75.996z"/>
<path style="fill:#008E8E;" d="M255.999,42.359v33.637c58.368,0,105.854,47.486,105.854,105.854s-47.486,105.854-105.854,105.854
	v33.637c76.916,0,139.49-62.576,139.49-139.49S332.915,42.359,255.999,42.359z"/>
<path style="fill:#797882;" d="M449.784,181.115V424.79H62.216V181.115H28.578v260.493c0,9.289,7.53,16.818,16.818,16.818h421.205
	c9.289,0,16.818-7.53,16.818-16.818V181.115H449.784z"/>
<path style="fill:#3C3A3F;" d="M179.989,295.481c-0.014,0.289-0.043,0.574-0.043,0.867v145.26c0,9.289,7.53,16.818,16.818,16.818
	h118.472c9.289,0,16.818-7.53,16.818-16.818v-145.26c0-0.293-0.029-0.578-0.043-0.867H179.989z M298.418,424.79h-84.836V313.167
	h84.836V424.79z"/>
<path style="fill:#00F9FF;" d="M255.999,321.341c-68.38,0-132.667-26.628-181.019-74.98S0,133.722,0,65.34
	c0-9.288,7.53-16.818,16.818-16.818s16.818,7.53,16.818,16.818c0,122.611,99.752,222.363,222.363,222.363
	S478.362,187.952,478.362,65.34c0-9.289,7.53-16.818,16.818-16.818s16.818,7.53,16.818,16.818c0,68.38-26.628,132.667-74.98,181.019
	S324.379,321.341,255.999,321.341z"/>
<path style="fill:#FFA81D;" d="M344.336,198.448c-10.526,0-19.061-8.534-19.061-19.061c0-25.719-15.307-48.81-38.995-58.828
	c-9.696-4.1-14.231-15.285-10.13-24.98s15.287-14.231,24.98-10.13c37.826,15.999,62.267,52.873,62.267,93.94
	C363.397,189.915,354.864,198.448,344.336,198.448z"/>
<path style="fill:#A3CE4C;" d="M477.816,469.64H34.184c-15.482,0-28.031-12.551-28.031-28.031s12.549-28.031,28.031-28.031h443.63
	c15.482,0,28.031,12.55,28.031,28.031S493.296,469.64,477.816,469.64z"/>
<path style="fill:#00B7C0;" d="M495.181,48.522c-9.289,0-16.818,7.53-16.818,16.818c0,122.611-99.752,222.363-222.363,222.363
	v33.637c68.38,0,132.667-26.628,181.019-74.98s74.98-112.639,74.98-181.019C512,56.053,504.469,48.522,495.181,48.522z"/>
<path style="fill:#5A9449;" d="M477.816,413.578H255.999v56.061h221.815c15.482,0,28.031-12.551,28.031-28.031
	C505.846,426.127,493.296,413.578,477.816,413.578z"/>
</svg>