<?xml version="1.0" encoding="utf-8"?>
<!-- Uploaded to: SVG Repo, www.svgrepo.com, Generator: SVG Repo Mixer Tools -->
<svg width="800px" height="800px" viewBox="0 0 1024 1024" class="icon"  version="1.1" xmlns="http://www.w3.org/2000/svg"><path d="M297.670085 732.035004m-35.018926 0a35.018926 35.018926 0 1 0 70.037852 0 35.018926 35.018926 0 1 0-70.037852 0Z" fill="#E0E0E0" /><path d="M731.908042 732.035004m-35.018926 0a35.018926 35.018926 0 1 0 70.037852 0 35.018926 35.018926 0 1 0-70.037852 0Z" fill="#E0E0E0" /><path d="M693.386405 274.009119H336.190699c-37.330859 0-71.282896-14.370231-88.60806-39.739037-4.363799-6.388021-2.722511-14.411186 3.666533-18.771914 6.392116-4.366871 15.10538-3.578479 19.466108 2.810565 11.996864 17.564753 37.69741 28.055482 65.476443 28.055482h357.195706c27.779033 0 53.479578-10.144656 65.476442-27.708384 4.360728-6.384949 13.07092-7.43136 19.466108-3.064489 6.388021 4.360728 8.029309 11.989697 3.666533 18.378741-17.326187 25.367783-51.278225 40.039036-88.610107 40.039036zM645.57096 567.864207h54.265922v28.668789h-54.265922z" fill="#FFB612" /><path d="M609.734974 385.983266c0-15.472955-12.542595-28.01555-28.015551-28.01555H413.519638c-15.472955 0-28.01555 12.542595-28.01555 28.01555v125.196602c0 15.472955 12.542595 28.01555 28.01555 28.01555h168.199785c15.472955 0 28.01555-12.542595 28.015551-28.01555V385.983266z m-196.585983 125.567248v-124.914009h171.677924l0.017406 124.914009h-171.69533zM325.685635 357.967716h-87.548338c-44.413074 0-83.007407 38.994673-83.007408 83.407746v73.540563c0 15.45043 15.030637 25.303278 30.477995 25.303278h140.076727c15.447358 0 23.98349-9.852848 23.98349-25.303278V388.847073c0-15.447358-8.535108-30.879358-23.982466-30.879357z m-4.686323 153.582798h-138.224519v-70.175052c0-28.965716 26.395764-54.738957 55.362504-54.738957h82.862015v124.914009zM738.911418 357.967716h-63.034476c-15.447358 0-30.305982 15.432-30.305982 30.879357v126.068952c0 15.45043 14.858624 25.303278 30.305982 25.303278h168.092277c15.447358 0 23.784856-9.852848 23.784857-25.303278V493.904875c0-73.376742-55.465916-135.937159-128.842658-135.937159z m-67.743325 28.668789h28.668789v124.914009h-28.668789v-124.914009z m173.03662 142.287296v-13.277745h-0.232422l0.232422 13.277745z m-0.276449-17.373287h-116.446478v-124.914009h11.429632c57.92836 0 105.057802 46.550946 105.057801 104.48033l-0.040955 20.433679zM413.148991 660.013886h196.585983v27.644904h-196.585983z" fill="#262626" /><path d="M932.258851 661.997152v-16.458956c20.477706-5.787 28.01555-21.316269 28.01555-39.57112 0-18.255875-7.537844-33.78412-28.01555-39.57112v-72.491081c0-108.135601-85.211832-199.417025-193.347433-199.417026h-72.862751v-48.12261h-71.671973v48.12261h-188.3949v-48.12261h-69.624202v48.12261H248.643384c-84.963028 0-156.993361 72.431696-156.993361 157.394724v210.115603c-15.35828 0-28.668789 12.564097-28.668789 28.01555v28.015551c0 15.45043 16.130289 25.945254 31.578671 25.945254h120.331099c6.700306 40.955413 41.220599 70.038876 82.781129 70.038875s76.079799-29.083463 82.781128-70.038875h268.676724c6.700306 40.955413 41.220599 70.038876 82.781129 70.038875 41.560529 0 76.079799-29.083463 82.781128-70.038875h120.331099c15.447358 0 24.884509-10.494825 24.884509-25.945254v-28.015551c-0.004096-15.452477-7.171293-28.016574-27.648999-28.016574z m-309.213368-387.988033h14.334394v20.477706h-14.334394v-20.477706z m-258.019102 0h12.286624v20.477706h-12.286624v-20.477706z m-67.356296 514.056986c-30.894716 0-56.031101-25.135361-56.031101-56.031101s25.135361-56.031101 56.031101-56.0311 56.031101 25.135361 56.0311 56.0311-25.136385 56.031101-56.0311 56.031101z m434.237957 0c-30.894716 0-56.031101-25.135361-56.0311-56.031101s25.135361-56.031101 56.0311-56.0311c30.894716 0 56.031101 25.135361 56.031101 56.0311s-25.136385 56.031101-56.031101 56.031101z m82.780105-71.738526c-6.700306-35.835986-41.220599-70.038876-82.781129-70.038875-41.560529 0-76.079799 34.202889-82.781128 70.038875H380.45019c-6.700306-35.835986-41.220599-70.038876-82.781129-70.038875s-76.079799 34.202889-82.781128 70.038875h-67.95015v-26.3159c0-15.45043-7.167197-28.01555-27.644904-28.015551V451.881549c0-69.514646 59.833811-128.725935 129.348457-128.725934H738.910394c92.684147 0 164.678644 78.064089 164.678644 170.748236V661.996128c-14.334395 0-27.644904 12.564097-27.644904 28.015551v26.3159H814.688147z" fill="#262626" /></svg>