<svg width="9" height="9" viewBox="0 0 9 9" fill="none" xmlns="http://www.w3.org/2000/svg">
<path d="M4.285 7.00004C5.07389 7.00004 5.74334 6.72365 6.29334 6.17087C6.84334 5.6181 7.11834 4.95004 7.11834 4.16671C7.11834 3.95004 7.09473 3.74171 7.0475 3.54171C7.00028 3.34171 6.935 3.15004 6.85167 2.96671C6.69611 3.08337 6.52806 3.17365 6.3475 3.23754C6.16695 3.30143 5.97945 3.33337 5.785 3.33337C5.47945 3.33337 5.1975 3.2556 4.93917 3.10004C4.68084 2.94449 4.46278 2.74171 4.285 2.49171C4.10722 2.74171 3.88917 2.94449 3.63084 3.10004C3.3725 3.2556 3.09056 3.33337 2.785 3.33337C2.59056 3.33337 2.40306 3.30143 2.2225 3.23754C2.04195 3.17365 1.87389 3.08337 1.71834 2.96671C1.635 3.15004 1.56972 3.3431 1.5225 3.54587C1.47528 3.74865 1.45167 3.9556 1.45167 4.16671C1.45167 4.95004 1.72806 5.6181 2.28084 6.17087C2.83361 6.72365 3.50167 7.00004 4.285 7.00004ZM3.235 4.97504C3.36278 4.97504 3.46972 4.93199 3.55584 4.84587C3.64195 4.75976 3.685 4.65282 3.685 4.52504C3.685 4.39726 3.64195 4.29032 3.55584 4.20421C3.46972 4.1181 3.36278 4.07504 3.235 4.07504C3.10722 4.07504 3.00028 4.1181 2.91417 4.20421C2.82806 4.29032 2.785 4.39726 2.785 4.52504C2.785 4.65282 2.82806 4.75976 2.91417 4.84587C3.00028 4.93199 3.10722 4.97504 3.235 4.97504ZM5.34334 4.97504C5.47111 4.97504 5.57806 4.93199 5.66417 4.84587C5.75028 4.75976 5.79334 4.65282 5.79334 4.52504C5.79334 4.39726 5.75028 4.29032 5.66417 4.20421C5.57806 4.1181 5.47111 4.07504 5.34334 4.07504C5.21556 4.07504 5.10861 4.1181 5.0225 4.20421C4.93639 4.29032 4.89334 4.39726 4.89334 4.52504C4.89334 4.65282 4.93639 4.75976 5.0225 4.84587C5.10861 4.93199 5.21556 4.97504 5.34334 4.97504ZM2.785 2.83337C3.135 2.83337 3.43084 2.71254 3.6725 2.47087C3.91417 2.22921 4.035 1.93337 4.035 1.58337V1.34171C3.60722 1.3806 3.21556 1.50421 2.86 1.71254C2.50445 1.92087 2.21 2.19171 1.97667 2.52504C2.08778 2.61949 2.21278 2.69449 2.35167 2.75004C2.49056 2.8056 2.635 2.83337 2.785 2.83337ZM5.785 2.83337C5.935 2.83337 6.07945 2.8056 6.21834 2.75004C6.35722 2.69449 6.48222 2.61949 6.59334 2.52504C6.36 2.19171 6.06556 1.92087 5.71 1.71254C5.35445 1.50421 4.96278 1.3806 4.535 1.34171V1.58337C4.535 1.93337 4.65584 2.22921 4.8975 2.47087C5.13917 2.71254 5.435 2.83337 5.785 2.83337ZM0.835003 8.16671C0.690558 8.16671 0.568336 8.11254 0.468336 8.00421C0.368336 7.89587 0.323891 7.76949 0.335003 7.62504L0.651669 4.15004C0.696114 3.68337 0.822503 3.24726 1.03084 2.84171C1.23917 2.43615 1.50584 2.08476 1.83084 1.78754C2.15584 1.49032 2.52806 1.25699 2.9475 1.08754C3.36695 0.918096 3.81278 0.833374 4.285 0.833374C4.75722 0.833374 5.20306 0.918096 5.6225 1.08754C6.04195 1.25699 6.41417 1.49032 6.73917 1.78754C7.06417 2.08476 7.33084 2.43615 7.53917 2.84171C7.7475 3.24726 7.87389 3.68337 7.91834 4.15004L8.235 7.62504C8.24611 7.76949 8.20167 7.89587 8.10167 8.00421C8.00167 8.11254 7.87945 8.16671 7.735 8.16671H0.835003ZM4.285 7.50004C3.51834 7.50004 2.83917 7.26948 2.2475 6.80837C1.65584 6.34726 1.26278 5.76115 1.06834 5.05004L0.835003 7.66671H7.735L7.50167 5.05004C7.30722 5.76115 6.91556 6.34726 6.32667 6.80837C5.73778 7.26948 5.05722 7.50004 4.285 7.50004ZM4.285 7.66671H7.735H0.835003H4.285Z" fill="#828282"/>
</svg>
