<svg width="16" height="16" viewBox="0 0 16 16" fill="none" xmlns="http://www.w3.org/2000/svg">
<path d="M4.66601 14C4.29935 14 3.98557 13.8696 3.72468 13.6087C3.46335 13.3473 3.33268 13.0333 3.33268 12.6667V4H2.66602V2.66667H5.99935V2H9.99935V2.66667H13.3327V4H12.666V12.6667C12.666 13.0333 12.5356 13.3473 12.2747 13.6087C12.0133 13.8696 11.6993 14 11.3327 14H4.66601ZM11.3327 4H4.66601V12.6667H11.3327V4ZM5.99935 11.3333H7.33268V5.33333H5.99935V11.3333ZM8.66601 11.3333H9.99935V5.33333H8.66601V11.3333ZM4.66601 4V12.6667V4Z" fill="#FFA3A3"/>
</svg>
