<svg width="19" height="17" viewBox="0 0 19 17" fill="none" xmlns="http://www.w3.org/2000/svg">
<path fill-rule="evenodd" clip-rule="evenodd" d="M18.6748 7.76016C19.1084 8.16195 19.1084 8.79504 18.6748 9.19681L17.1864 10.5761C16.9653 10.7811 16.6592 10.897 16.3392 10.897H12.3959L10.3407 16.2932C10.1798 16.7156 9.73288 17 9.22991 17H7.37948C6.68008 17 6.13626 16.4607 6.21447 15.8446L6.84991 10.8392L3.57241 10.5861L3.35113 11.8164C3.26042 12.3208 2.76962 12.692 2.19338 12.692H1.17248C0.480892 12.692 -0.0604172 12.1641 0.00543404 11.5538L0.336935 8.48178L0.0121574 5.77301C-0.0614529 5.15907 0.481453 4.62397 1.17796 4.62397H2.20575C2.76829 4.62397 3.25154 4.97815 3.35724 5.46791L3.55246 6.37246L6.84491 6.1182L6.21142 1.42178C6.13515 0.856304 6.58653 0.341752 7.22359 0.267955L9.46048 0.0088372C10.0379 -0.0580541 10.5832 0.260923 10.741 0.757849L12.4237 6.05997H16.3392C16.6592 6.05997 16.9653 6.17589 17.1864 6.38085L18.6748 7.76016ZM17.5032 8.47849L16.239 7.30702H12.2461C11.7209 7.30702 11.2598 6.9974 11.1176 6.54924L9.44162 1.26868L7.63585 1.47785L8.27055 6.18326C8.34916 6.76612 7.86795 7.29097 7.20822 7.34192L3.46369 7.63109C2.86475 7.67735 2.32341 7.3145 2.21045 6.79107L2.01188 5.87102H1.43868L1.73841 8.37086C1.74672 8.44024 1.74714 8.51018 1.73964 8.57964L1.43045 11.445H1.99333L2.21748 10.1986C2.31433 9.66014 2.86418 9.27959 3.47699 9.32691L7.21156 9.61532C7.8681 9.66602 8.34852 10.1863 8.27482 10.7668L7.64182 15.7529H9.0616L11.1168 10.3568C11.2776 9.93435 11.7246 9.64996 12.2275 9.64996H16.239L17.5032 8.47849Z" fill="#1677ff"/>
</svg>
