<!DOCTYPE svg PUBLIC "-//W3C//DTD SVG 1.1//EN" "http://www.w3.org/Graphics/SVG/1.1/DTD/svg11.dtd">
<!-- Uploaded to: SVG Repo, www.svgrepo.com, Transformed by: SVG Repo Mixer Tools -->
<svg fill="#0057ad" version="1.1" id="Layer_1" xmlns="http://www.w3.org/2000/svg" xmlns:xlink="http://www.w3.org/1999/xlink" viewBox="0 0 512 512" xml:space="preserve" width="800px" height="800px" stroke="#0057ad">
<g id="SVGRepo_bgCarrier" stroke-width="0"/>
<g id="SVGRepo_tracerCarrier" stroke-linecap="round" stroke-linejoin="round"/>
<g id="SVGRepo_iconCarrier"> <g> <g> <path d="M96.279,0.127V511.79h239.704V0.127H96.279z M320.246,496.052H112.017V15.865h208.229V496.052z"/> </g> </g> <g> <g> <polygon points="360.114,71.344 360.114,55.607 344.377,55.607 344.377,103.869 360.114,103.869 360.114,87.082 368.508,87.082 368.508,71.344 "/> </g> </g> <g> <g> <rect x="399.979" y="111.213" width="15.738" height="289.574"/> </g> </g> <g> <g> <polygon points="360.114,423.869 360.114,408.131 344.377,408.131 344.377,456.393 360.114,456.393 360.114,439.607 368.508,439.607 368.508,423.869 "/> </g> </g> <g> <g> <polygon points="119.852,24.131 119.852,55.607 135.59,55.607 135.59,39.869 152.377,39.869 152.377,24.131 "/> </g> </g> <g> <g> <polygon points="135.59,471.082 135.59,456.393 119.852,456.393 119.852,486.82 152.377,486.82 152.377,471.082 "/> </g> </g> <g> <g> <polygon points="279.328,24.131 279.328,39.869 296.114,39.869 296.114,55.607 311.852,55.607 311.852,24.131 "/> </g> </g> <g> <g> <polygon points="296.114,456.393 296.114,471.082 279.328,471.082 279.328,486.82 311.852,486.82 311.852,456.393 "/> </g> </g> <g> <g> <rect x="159.717" y="471.082" width="112.262" height="15.738"/> </g> </g> <g> <g> <rect x="296.11" y="65.049" width="15.738" height="382.951"/> </g> </g> <g> <g> <rect x="119.848" y="65.049" width="15.738" height="382.951"/> </g> </g> <g> <g> <rect x="159.717" y="24.131" width="112.262" height="15.738"/> </g> </g> <g> <g> <polygon points="233.164,55.607 233.164,79.738 200.639,79.738 200.639,55.607 184.901,55.607 184.901,120.656 200.639,120.656 200.639,95.475 233.164,95.475 233.164,120.656 248.901,120.656 248.901,55.607 "/> </g> </g> <g> <g> <polygon points="200.639,440.656 200.639,392.393 184.901,392.393 184.901,456.393 248.901,456.393 248.901,440.656 "/> </g> </g> <g> <g> <path d="M184.901,135.344v65.049h64v-65.049H184.901z M233.164,184.656h-32.525v-33.574h32.525V184.656z"/> </g> </g> <g> <g> <polygon points="184.901,216.131 184.901,231.869 207.983,231.869 207.983,280.131 223.721,280.131 223.721,231.869 248.901,231.869 248.901,216.131 "/> </g> </g> <g> <g> <polygon points="248.901,311.607 248.901,295.869 184.901,295.869 184.901,375.607 248.901,375.607 248.901,359.869 200.639,359.869 200.639,344.131 231.065,344.131 231.065,328.393 200.639,328.393 200.639,311.607 "/> </g> </g> <g> <g> <polygon points="399.983,55.607 399.983,71.344 375.852,71.344 375.852,87.082 399.983,87.082 399.983,103.869 415.721,103.869 415.721,55.607 "/> </g> </g> <g> <g> <rect x="399.979" width="15.738" height="48.262"/> </g> </g> <g> <g> <polygon points="399.983,408.131 399.983,423.869 375.852,423.869 375.852,439.607 399.983,439.607 399.983,456.393 415.721,456.393 415.721,408.131 "/> </g> </g> <g> <g> <rect x="399.979" y="463.738" width="15.738" height="48.262"/> </g> </g> </g>
</svg>