<svg width="7" height="7" viewBox="0 0 7 7" fill="none" xmlns="http://www.w3.org/2000/svg">
<path d="M4.10333 3.31667C3.99778 3.31667 3.90889 3.28056 3.83666 3.20833C3.76444 3.13611 3.72833 3.04722 3.72833 2.94167C3.72833 2.83611 3.76444 2.74722 3.83666 2.675C3.90889 2.60278 3.99778 2.56667 4.10333 2.56667C4.20889 2.56667 4.29777 2.60278 4.37 2.675C4.44222 2.74722 4.47833 2.83611 4.47833 2.94167C4.47833 3.04722 4.44222 3.13611 4.37 3.20833C4.29777 3.28056 4.20889 3.31667 4.10333 3.31667ZM2.36166 3.31667C2.25611 3.31667 2.16722 3.28056 2.095 3.20833C2.02277 3.13611 1.98666 3.04722 1.98666 2.94167C1.98666 2.83611 2.02277 2.74722 2.095 2.675C2.16722 2.60278 2.25611 2.56667 2.36166 2.56667C2.46722 2.56667 2.55611 2.60278 2.62833 2.675C2.70055 2.74722 2.73666 2.83611 2.73666 2.94167C2.73666 3.04722 2.70055 3.13611 2.62833 3.20833C2.55611 3.28056 2.46722 3.31667 2.36166 3.31667ZM3.23666 5.11667C2.92555 5.11667 2.64222 5.03333 2.38666 4.86667C2.13111 4.7 1.93111 4.48056 1.78666 4.20833H4.68666C4.54222 4.48056 4.34222 4.7 4.08666 4.86667C3.83111 5.03333 3.54778 5.11667 3.23666 5.11667ZM3.23666 6.5C2.82555 6.5 2.43805 6.42083 2.07416 6.2625C1.71027 6.10417 1.39222 5.88889 1.12 5.61667C0.847775 5.34444 0.632497 5.02639 0.474164 4.6625C0.315831 4.29861 0.236664 3.91111 0.236664 3.5C0.236664 3.08889 0.315831 2.70139 0.474164 2.3375C0.632497 1.97361 0.847775 1.65556 1.12 1.38333C1.39222 1.11111 1.71027 0.895833 2.07416 0.7375C2.43805 0.579167 2.82555 0.5 3.23666 0.5C3.64777 0.5 4.03527 0.579167 4.39916 0.7375C4.76305 0.895833 5.08111 1.11111 5.35333 1.38333C5.62555 1.65556 5.84083 1.97361 5.99916 2.3375C6.1575 2.70139 6.23666 3.08889 6.23666 3.5C6.23666 3.91111 6.1575 4.29861 5.99916 4.6625C5.84083 5.02639 5.62555 5.34444 5.35333 5.61667C5.08111 5.88889 4.76305 6.10417 4.39916 6.2625C4.03527 6.42083 3.64777 6.5 3.23666 6.5ZM3.23666 6C3.92 6 4.5075 5.75694 4.99916 5.27083C5.49083 4.78472 5.73666 4.2 5.73666 3.51667C5.73666 2.83333 5.495 2.23611 5.01166 1.725C4.52833 1.21389 3.93111 0.958333 3.22 0.958333H3.07C3.03111 0.958333 2.98111 0.961111 2.92 0.966667C2.90889 1.01111 2.89916 1.06389 2.89083 1.125C2.8825 1.18611 2.87833 1.23889 2.87833 1.28333C2.87833 1.42222 2.92416 1.5375 3.01583 1.62917C3.1075 1.72083 3.22277 1.76667 3.36166 1.76667C3.42833 1.76667 3.48389 1.7625 3.52833 1.75417C3.57278 1.74583 3.61444 1.74167 3.65333 1.74167C3.70889 1.74167 3.75611 1.75556 3.795 1.78333C3.83389 1.81111 3.85333 1.85278 3.85333 1.90833C3.85333 1.99722 3.81166 2.06528 3.72833 2.1125C3.645 2.15972 3.52277 2.18333 3.36166 2.18333C3.10611 2.18333 2.89222 2.09722 2.72 1.925C2.54778 1.75278 2.46166 1.53889 2.46166 1.28333C2.46166 1.25556 2.46305 1.21944 2.46583 1.175C2.46861 1.13056 2.47555 1.09444 2.48666 1.06667C1.98111 1.25 1.56305 1.55556 1.2325 1.98333C0.901942 2.41111 0.736664 2.91111 0.736664 3.48333C0.736664 4.16667 0.982497 4.75694 1.47416 5.25417C1.96583 5.75139 2.55333 6 3.23666 6Z" fill="#828282"/>
</svg>
