<svg width="18" height="18" viewBox="0 0 18 18" fill="none" xmlns="http://www.w3.org/2000/svg">
<path d="M9.01868 16C8.50866 16 8.07515 15.8215 7.71814 15.4645C7.36112 15.1075 7.18262 14.6803 7.18262 14.1831C7.18262 13.673 7.36112 13.2395 7.71814 12.8825C8.07515 12.5255 8.50229 12.347 8.99956 12.347C9.50958 12.347 9.94003 12.5255 10.2909 12.8825C10.6413 13.2395 10.8165 13.673 10.8165 14.1831C10.8165 14.6803 10.6413 15.1075 10.2909 15.4645C9.94003 15.8215 9.51595 16 9.01868 16ZM9.01868 10.8169C8.50866 10.8169 8.07515 10.6384 7.71814 10.2814C7.36112 9.92441 7.18262 9.49727 7.18262 9C7.18262 8.48998 7.36112 8.05953 7.71814 7.70863C8.07515 7.35825 8.50229 7.18306 8.99956 7.18306C9.50958 7.18306 9.94003 7.35825 10.2909 7.70863C10.6413 8.05953 10.8165 8.48361 10.8165 8.98087C10.8165 9.49089 10.6413 9.92441 10.2909 10.2814C9.94003 10.6384 9.51595 10.8169 9.01868 10.8169ZM9.01868 5.65301C8.50866 5.65301 8.07515 5.47118 7.71814 5.10754C7.36112 4.74441 7.18262 4.31421 7.18262 3.81694C7.18262 3.30692 7.36112 2.87647 7.71814 2.52557C8.07515 2.17519 8.50229 2 8.99956 2C9.50958 2 9.94003 2.17519 10.2909 2.52557C10.6413 2.87647 10.8165 3.30692 10.8165 3.81694C10.8165 4.31421 10.6413 4.74441 10.2909 5.10754C9.94003 5.47118 9.51595 5.65301 9.01868 5.65301Z" fill="black"/>
</svg>
