<svg width="12" height="19" viewBox="0 0 12 19" fill="none" xmlns="http://www.w3.org/2000/svg">
<path d="M1.28571 18.8571C0.942857 18.8571 0.642857 18.7286 0.385714 18.4714C0.128571 18.2143 0 17.9143 0 17.5714V1.28571C0 0.942857 0.128571 0.642857 0.385714 0.385714C0.642857 0.128571 0.942857 0 1.28571 0H10.7143C11.0571 0 11.3571 0.128571 11.6143 0.385714C11.8714 0.642857 12 0.942857 12 1.28571V17.5714C12 17.9143 11.8714 18.2143 11.6143 18.4714C11.3571 18.7286 11.0571 18.8571 10.7143 18.8571H1.28571ZM1.28571 15.6429V17.5714H10.7143V15.6429H1.28571ZM6 17.25C6.18571 17.25 6.33929 17.1893 6.46071 17.0679C6.58214 16.9464 6.64286 16.7929 6.64286 16.6071C6.64286 16.4214 6.58214 16.2679 6.46071 16.1464C6.33929 16.025 6.18571 15.9643 6 15.9643C5.81429 15.9643 5.66071 16.025 5.53929 16.1464C5.41786 16.2679 5.35714 16.4214 5.35714 16.6071C5.35714 16.7929 5.41786 16.9464 5.53929 17.0679C5.66071 17.1893 5.81429 17.25 6 17.25ZM1.28571 14.3571H10.7143V3.21429H1.28571V14.3571ZM1.28571 1.92857H10.7143V1.28571H1.28571V1.92857ZM1.28571 15.6429V17.5714V15.6429ZM1.28571 1.92857V1.28571V1.92857Z" fill="#34EB72"/>
</svg>
