<svg width="16" height="16" viewBox="0 0 16 16" fill="none" xmlns="http://www.w3.org/2000/svg">
<path d="M6.16745 14.6663L5.90078 12.533C5.75634 12.4775 5.62034 12.4108 5.49278 12.333C5.36478 12.2552 5.23967 12.1719 5.11745 12.083L3.13411 12.9163L1.30078 9.74967L3.01745 8.44967C3.00634 8.3719 3.00078 8.29678 3.00078 8.22434V7.77434C3.00078 7.70234 3.00634 7.62745 3.01745 7.54967L1.30078 6.24967L3.13411 3.08301L5.11745 3.91634C5.23967 3.82745 5.36745 3.74412 5.50078 3.66634C5.63411 3.58856 5.76745 3.5219 5.90078 3.46634L6.16745 1.33301H9.83411L10.1008 3.46634C10.2452 3.5219 10.3814 3.58856 10.5094 3.66634C10.637 3.74412 10.7619 3.82745 10.8841 3.91634L12.8674 3.08301L14.7008 6.24967L12.9841 7.54967C12.9952 7.62745 13.0008 7.70234 13.0008 7.77434V8.22434C13.0008 8.29678 12.9897 8.3719 12.9674 8.44967L14.6841 9.74967L12.8508 12.9163L10.8841 12.083C10.7619 12.1719 10.6341 12.2552 10.5008 12.333C10.3674 12.4108 10.2341 12.4775 10.1008 12.533L9.83411 14.6663H6.16745ZM8.03411 10.333C8.67856 10.333 9.22856 10.1052 9.68411 9.64967C10.1397 9.19412 10.3674 8.64412 10.3674 7.99967C10.3674 7.35523 10.1397 6.80523 9.68411 6.34967C9.22856 5.89412 8.67856 5.66634 8.03411 5.66634C7.37856 5.66634 6.82567 5.89412 6.37545 6.34967C5.92567 6.80523 5.70078 7.35523 5.70078 7.99967C5.70078 8.64412 5.92567 9.19412 6.37545 9.64967C6.82567 10.1052 7.37856 10.333 8.03411 10.333ZM8.03411 8.99967C7.75634 8.99967 7.52034 8.90234 7.32611 8.70767C7.13145 8.51345 7.03411 8.27745 7.03411 7.99967C7.03411 7.7219 7.13145 7.4859 7.32611 7.29167C7.52034 7.09701 7.75634 6.99967 8.03411 6.99967C8.31189 6.99967 8.54811 7.09701 8.74278 7.29167C8.937 7.4859 9.03411 7.7219 9.03411 7.99967C9.03411 8.27745 8.937 8.51345 8.74278 8.70767C8.54811 8.90234 8.31189 8.99967 8.03411 8.99967ZM7.33411 13.333H8.65078L8.88411 11.5663C9.22856 11.4775 9.54811 11.3468 9.84278 11.1743C10.137 11.0023 10.4063 10.7941 10.6508 10.5497L12.3008 11.233L12.9508 10.0997L11.5174 9.01634C11.573 8.86079 11.6119 8.69678 11.6341 8.52434C11.6563 8.35234 11.6674 8.17745 11.6674 7.99967C11.6674 7.8219 11.6563 7.64679 11.6341 7.47434C11.6119 7.30234 11.573 7.13856 11.5174 6.98301L12.9508 5.89967L12.3008 4.76634L10.6508 5.46634C10.4063 5.21079 10.137 4.99679 9.84278 4.82434C9.54811 4.65234 9.22856 4.5219 8.88411 4.43301L8.66745 2.66634H7.35078L7.11745 4.43301C6.773 4.5219 6.45367 4.65234 6.15945 4.82434C5.86478 4.99679 5.59523 5.20523 5.35078 5.44967L3.70078 4.76634L3.05078 5.89967L4.48411 6.96634C4.42856 7.13301 4.38967 7.29967 4.36745 7.46634C4.34523 7.63301 4.33411 7.81079 4.33411 7.99967C4.33411 8.17745 4.34523 8.34967 4.36745 8.51634C4.38967 8.68301 4.42856 8.84967 4.48411 9.01634L3.05078 10.0997L3.70078 11.233L5.35078 10.533C5.59523 10.7886 5.86478 11.0023 6.15945 11.1743C6.45367 11.3468 6.773 11.4775 7.11745 11.5663L7.33411 13.333Z" fill="#D1D1D1"/>
</svg>
