<?xml version="1.0" encoding="utf-8"?>
<!-- Uploaded to: SVG Repo, www.svgrepo.com, Generator: SVG Repo Mixer Tools -->
<svg width="800px" height="800px" viewBox="0 0 1024 1024" class="icon"  version="1.1" xmlns="http://www.w3.org/2000/svg"><path d="M512 213.333333l1.706667 0.661334 1.749333 0.512L938.666667 338.602667v325.354666l-425.642667 124.330667-1.642667 0.448-1.514666 0.554667-1.685334-0.64-1.728-0.512L85.333333 664.085333V338.688l423.530667-124.309333 1.536-0.448 1.514667-0.576L512 213.333333m0-42.666666c-5.12 0-10.24 0.917333-15.125333 2.773333L70.186667 298.666667A42.666667 42.666667 0 0 0 42.666667 338.56v325.696A42.666667 42.666667 0 0 0 69.824 704l424.576 125.077333a42.837333 42.837333 0 0 0 30.592 0.170667L953.749333 704A42.666667 42.666667 0 0 0 981.333333 664.085333V338.432A42.666667 42.666667 0 0 0 954.112 298.666667l-426.666667-125.098667A42.453333 42.453333 0 0 0 512 170.666667z" fill="#673AB7" /><path d="M718.058667 447.658667c-3.392 12.949333-6.784 32.533333-6.784 42.261333l-6.784 35.818667h27.178666l-6.826666-35.818667c0-9.706667-3.370667-32.512-6.784-42.261333z" fill="#673AB7" /><path d="M512 256L128 362.496V640l384 106.666667 384-106.666667V362.602667L512 256z m-175.637333 341.333333h-53.994667v-3.264L234.666667 405.333333h54.016l12.693333 78.101334c3.178667 19.52 6.4 42.304 9.557333 65.088 3.157333-22.762667 6.378667-42.325333 9.536-65.088L330.005333 405.333333H384l-47.637333 192zM448 597.333333h-42.666667v-192h42.666667v192z m88.896 0c-21.354667 0-39.104-3.2-46.229333-6.378666l10.645333-38.4c10.688 3.136 28.458667 6.378667 42.666667 6.378666 21.376 0 28.458667-6.378667 28.458666-15.978666 0-12.821333-10.645333-16.021333-31.978666-25.578667-39.146667-19.242667-46.229333-41.642667-46.229334-54.464 0-31.957333 24.917333-57.578667 78.208-57.578667 17.792 0 32.021333 3.2 39.104 6.4l-7.082666 38.4a78.506667 78.506667 0 0 0-32.021334-6.378666c-17.792 0-28.458667 6.378667-28.458666 15.957333 0 9.664 3.584 12.821333 32.021333 25.621333 32 16 42.666667 35.178667 42.666667 54.421334C618.666667 574.912 586.645333 597.333333 536.896 597.333333z m201.514667 0l-6.741334-39.061333h-34.005333v3.264L690.922667 597.333333H640l47.509333-192h61.077334L789.333333 597.333333h-50.922666z" fill="#673AB7" /></svg>