<svg width="21" height="11" viewBox="0 0 21 11" fill="none" xmlns="http://www.w3.org/2000/svg">
<path d="M9.29999 10.5H5.29999C3.91665 10.5 2.73765 10.0123 1.76299 9.037C0.787655 8.06233 0.299988 6.88333 0.299988 5.5C0.299988 4.11667 0.787655 2.93733 1.76299 1.962C2.73765 0.987333 3.91665 0.5 5.29999 0.5H9.29999V2.5H5.29999C4.46665 2.5 3.75832 2.79167 3.17499 3.375C2.59165 3.95833 2.29999 4.66667 2.29999 5.5C2.29999 6.33333 2.59165 7.04167 3.17499 7.625C3.75832 8.20833 4.46665 8.5 5.29999 8.5H9.29999V10.5ZM6.29999 6.5V4.5H14.3V6.5H6.29999ZM11.3 10.5V8.5H15.3C16.1333 8.5 16.8417 8.20833 17.425 7.625C18.0083 7.04167 18.3 6.33333 18.3 5.5C18.3 4.66667 18.0083 3.95833 17.425 3.375C16.8417 2.79167 16.1333 2.5 15.3 2.5H11.3V0.5H15.3C16.6833 0.5 17.8627 0.987333 18.838 1.962C19.8127 2.93733 20.3 4.11667 20.3 5.5C20.3 6.88333 19.8127 8.06233 18.838 9.037C17.8627 10.0123 16.6833 10.5 15.3 10.5H11.3Z" fill="#828282"/>
</svg>
