<svg width="17" height="19" viewBox="0 0 17 19" fill="none" xmlns="http://www.w3.org/2000/svg">
<path d="M3.29999 18.5C2.74999 18.5 2.27932 18.3043 1.88799 17.913C1.49599 17.521 1.29999 17.05 1.29999 16.5V3.5H0.299988V1.5H5.29999V0.5H11.3V1.5H16.3V3.5H15.3V16.5C15.3 17.05 15.1043 17.521 14.713 17.913C14.321 18.3043 13.85 18.5 13.3 18.5H3.29999ZM13.3 3.5H3.29999V16.5H13.3V3.5ZM5.29999 14.5H7.29998V5.5H5.29999V14.5ZM9.29998 14.5H11.3V5.5H9.29998V14.5ZM3.29999 3.5V16.5V3.5Z" fill="#FF7272"/>
</svg>
