<?xml version="1.0" standalone="no"?>
<!DOCTYPE svg PUBLIC "-//W3C//DTD SVG 20010904//EN"
 "http://www.w3.org/TR/2001/REC-SVG-20010904/DTD/svg10.dtd">
<svg version="1.0" xmlns="http://www.w3.org/2000/svg"
 width="408.000000pt" height="408.000000pt" viewBox="0 0 408.000000 408.000000"
 preserveAspectRatio="xMidYMid meet">
<metadata>
Created by potrace 1.14, written by Peter Selinger 2001-2017
</metadata>
<g transform="translate(0.000000,408.000000) scale(0.100000,-0.100000)"
fill="#000000" stroke="none">
<path d="M3095 3181 c-16 -10 -68 -56 -115 -101 -47 -45 -193 -187 -324 -314
-132 -127 -269 -260 -306 -296 -37 -36 -76 -73 -87 -83 -19 -17 -25 -12 -249
209 -217 215 -266 254 -314 254 -38 0 -94 -38 -165 -110 l-70 -71 399 -395
c393 -389 399 -394 419 -377 18 16 95 89 367 353 387 374 553 535 654 633
l119 115 -89 87 c-120 116 -173 138 -239 96z"/>
<path d="M1705 1844 c-205 -198 -285 -244 -406 -231 -77 9 -131 41 -237 143
-151 146 -191 147 -331 10 -45 -43 -81 -80 -81 -82 0 -4 96 -99 221 -219 123
-118 229 -179 354 -205 61 -13 190 -17 235 -7 173 36 248 84 486 316 l157 152
-129 130 -129 129 -140 -136z"/>
<path d="M2965 1920 c-9 -16 -12 -30 -8 -30 5 0 3 -4 -3 -8 -6 -4 -33 -52 -60
-107 -37 -75 -54 -100 -69 -101 -26 -1 -123 -12 -155 -18 -14 -3 -45 -7 -68
-10 -24 -2 -46 -7 -49 -9 -7 -7 98 -102 109 -99 5 1 7 -2 4 -6 -3 -5 19 -32
48 -60 30 -28 52 -52 51 -54 -3 -3 -27 -140 -39 -223 -2 -16 -7 -38 -11 -47
-5 -13 -2 -18 9 -18 9 0 16 5 16 12 0 6 3 9 6 5 8 -8 84 33 84 46 0 6 3 7 6 4
4 -4 35 9 70 28 35 19 70 35 77 35 8 0 35 -12 61 -26 25 -14 50 -23 56 -19 6
4 9 2 8 -3 -4 -14 111 -74 125 -65 6 4 7 1 2 -7 -5 -8 -3 -11 6 -8 8 3 12 12
11 19 -7 26 -12 54 -18 89 -3 19 -7 46 -10 60 -2 14 -7 43 -10 65 -4 22 -11
46 -18 54 -6 8 -6 12 -1 9 12 -7 37 17 28 26 -4 3 -1 6 5 6 6 0 53 41 104 90
69 67 87 90 72 91 -19 2 -34 4 -89 12 -107 17 -134 20 -167 21 -20 1 -36 4
-35 7 4 12 -67 148 -75 143 -4 -3 -5 3 -1 12 5 13 3 15 -7 9 -9 -5 -11 -4 -6
4 7 10 -29 101 -40 101 -2 0 -10 -13 -19 -30z"/>
<path d="M2070 676 c7 -7 13 -7 20 0 6 6 3 10 -10 10 -13 0 -16 -4 -10 -10z"/>
</g>
</svg>
