<svg width="9" height="9" viewBox="0 0 9 9" fill="none" xmlns="http://www.w3.org/2000/svg">
<path d="M1 7.99564V6.39439L4.17625 2.09814L3.59 1.31064L4.01875 1.00439L4.5 1.66064L4.99 1.00439L5.41 1.31064L4.8325 2.09814L8 6.39439V7.99564H1ZM4.5 2.54439L1.525 6.56939V7.47064H2.79375L4.5 5.08189L6.20625 7.47064H7.475V6.56939L4.5 2.54439ZM3.44125 7.47064H5.55875L4.5 5.98314L3.44125 7.47064ZM4.5 5.08189L6.20625 7.47064L4.5 5.08189L2.79375 7.47064L4.5 5.08189Z" fill="#828282"/>
<path d="M4.5 5.08189L6.20625 7.47064L4.5 5.08189ZM4.5 5.08189L2.79375 7.47064L4.5 5.08189ZM1 7.99564V6.39439L4.17625 2.09814L3.59 1.31064L4.01875 1.00439L4.5 1.66064L4.99 1.00439L5.41 1.31064L4.8325 2.09814L8 6.39439V7.99564H1ZM4.5 2.54439L1.525 6.56939V7.47064H2.79375L4.5 5.08189L6.20625 7.47064H7.475V6.56939L4.5 2.54439ZM3.44125 7.47064H5.55875L4.5 5.98314L3.44125 7.47064Z" stroke="#828282" stroke-width="0.5"/>
</svg>
