<svg width="15" height="14" viewBox="0 0 15 14" fill="none" xmlns="http://www.w3.org/2000/svg">
<path d="M5.66647 13.6666L5.3998 11.5333C5.25536 11.4777 5.11936 11.411 4.9918 11.3333C4.8638 11.2555 4.73869 11.1721 4.61647 11.0833L2.63314 11.9166L0.799805 8.74992L2.51647 7.44992C2.50536 7.37214 2.4998 7.29703 2.4998 7.22458V6.77458C2.4998 6.70258 2.50536 6.6277 2.51647 6.54992L0.799805 5.24992L2.63314 2.08325L4.61647 2.91659C4.73869 2.8277 4.86647 2.74436 4.9998 2.66659C5.13314 2.58881 5.26647 2.52214 5.3998 2.46658L5.66647 0.333252H9.33314L9.5998 2.46658C9.74425 2.52214 9.88047 2.58881 10.0085 2.66659C10.136 2.74436 10.2609 2.8277 10.3831 2.91659L12.3665 2.08325L14.1998 5.24992L12.4831 6.54992C12.4942 6.6277 12.4998 6.70258 12.4998 6.77458V7.22458C12.4998 7.29703 12.4887 7.37214 12.4665 7.44992L14.1831 8.74992L12.3498 11.9166L10.3831 11.0833C10.2609 11.1721 10.1331 11.2555 9.9998 11.3333C9.86647 11.411 9.73314 11.4777 9.5998 11.5333L9.33314 13.6666H5.66647ZM7.53314 9.33325C8.17758 9.33325 8.72758 9.10547 9.18314 8.64992C9.63869 8.19436 9.86647 7.64436 9.86647 6.99992C9.86647 6.35547 9.63869 5.80547 9.18314 5.34992C8.72758 4.89436 8.17758 4.66658 7.53314 4.66658C6.87758 4.66658 6.32469 4.89436 5.87447 5.34992C5.42469 5.80547 5.1998 6.35547 5.1998 6.99992C5.1998 7.64436 5.42469 8.19436 5.87447 8.64992C6.32469 9.10547 6.87758 9.33325 7.53314 9.33325ZM7.53314 7.99992C7.25536 7.99992 7.01936 7.90259 6.82514 7.70792C6.63047 7.5137 6.53314 7.2777 6.53314 6.99992C6.53314 6.72214 6.63047 6.48614 6.82514 6.29192C7.01936 6.09725 7.25536 5.99992 7.53314 5.99992C7.81092 5.99992 8.04714 6.09725 8.2418 6.29192C8.43603 6.48614 8.53314 6.72214 8.53314 6.99992C8.53314 7.2777 8.43603 7.5137 8.2418 7.70792C8.04714 7.90259 7.81092 7.99992 7.53314 7.99992ZM6.83314 12.3333H8.1498L8.38314 10.5666C8.72758 10.4777 9.04714 10.347 9.3418 10.1746C9.63603 10.0026 9.90536 9.79436 10.1498 9.54992L11.7998 10.2333L12.4498 9.09992L11.0165 8.01658C11.072 7.86103 11.1109 7.69703 11.1331 7.52458C11.1554 7.35258 11.1665 7.1777 11.1665 6.99992C11.1665 6.82214 11.1554 6.64703 11.1331 6.47459C11.1109 6.30258 11.072 6.13881 11.0165 5.98325L12.4498 4.89992L11.7998 3.76659L10.1498 4.46658C9.90536 4.21103 9.63603 3.99703 9.3418 3.82458C9.04714 3.65259 8.72758 3.52214 8.38314 3.43325L8.16647 1.66659H6.8498L6.61647 3.43325C6.27203 3.52214 5.95269 3.65259 5.65847 3.82458C5.3638 3.99703 5.09425 4.20547 4.8498 4.44992L3.1998 3.76659L2.5498 4.89992L3.98314 5.96658C3.92758 6.13325 3.88869 6.29992 3.86647 6.46658C3.84425 6.63325 3.83314 6.81103 3.83314 6.99992C3.83314 7.1777 3.84425 7.34992 3.86647 7.51658C3.88869 7.68325 3.92758 7.84992 3.98314 8.01658L2.5498 9.09992L3.1998 10.2333L4.8498 9.53325C5.09425 9.78881 5.3638 10.0026 5.65847 10.1746C5.95269 10.347 6.27203 10.4777 6.61647 10.5666L6.83314 12.3333Z" fill="#C7C7C7"/>
</svg>
