<svg width="994" height="294" viewBox="0 0 994 294" fill="none" xmlns="http://www.w3.org/2000/svg">
<path d="M207.8 290H0.6V255.2L142.6 47.6H4.6V4.39998H203.8V39.2L62.2 246.8H207.8V290ZM419.069 290H256.669V4.39998H419.069V47.2H307.869V120H411.869V162.8H307.869V246.8H419.069V290ZM560.916 4.39998C585.982 4.39998 606.649 7.46665 622.916 13.6C639.182 19.7333 651.316 29.0666 659.316 41.6C667.316 53.8666 671.316 69.4667 671.316 88.4C671.316 102.267 668.649 114.133 663.316 124C658.249 133.867 651.582 142.133 643.316 148.8C635.049 155.2 626.116 160.4 616.516 164.4L698.516 290H640.916L572.516 177.2H530.916V290H479.716V4.39998H560.916ZM557.716 47.2H530.916V135.2H559.316C573.449 135.2 584.916 133.467 593.716 130C602.516 126.533 608.916 121.467 612.916 114.8C617.182 108.133 619.316 99.8667 619.316 90C619.316 79.6 617.049 71.3333 612.516 65.2C607.982 58.8 601.182 54.2667 592.116 51.6C583.316 48.6667 571.849 47.2 557.716 47.2ZM993.509 146.8C993.509 168.933 990.709 189.067 985.109 207.2C979.776 225.067 971.509 240.533 960.309 253.6C949.376 266.667 935.376 276.667 918.309 283.6C901.509 290.533 881.776 294 859.109 294C836.176 294 816.176 290.533 799.109 283.6C782.309 276.4 768.443 266.4 757.509 253.6C746.576 240.533 738.309 224.933 732.709 206.8C727.376 188.667 724.709 168.533 724.709 146.4C724.709 116.8 729.509 91.0667 739.109 69.2C748.976 47.3333 763.776 30.4 783.509 18.4C803.509 6.13332 828.843 -9.53674e-06 859.509 -9.53674e-06C889.643 -9.53674e-06 914.576 6.13332 934.309 18.4C954.043 30.4 968.843 47.4667 978.709 69.6C988.576 91.4667 993.509 117.2 993.509 146.8ZM778.709 146.8C778.709 168.4 781.509 186.933 787.109 202.4C792.976 217.867 801.776 229.733 813.509 238C825.509 246.267 840.709 250.4 859.109 250.4C878.043 250.4 893.376 246.267 905.109 238C916.843 229.733 925.509 217.867 931.109 202.4C936.709 186.933 939.509 168.4 939.509 146.8C939.509 114.533 933.243 89.2 920.709 70.8C908.176 52.4 887.776 43.2 859.509 43.2C840.843 43.2 825.509 47.3333 813.509 55.6C801.776 63.8667 792.976 75.7333 787.109 91.2C781.509 106.667 778.709 125.2 778.709 146.8Z" fill="#1C1D21"/>
</svg>
